# xmcd
#
# Track frame offsets:
#	183
#	23408
#	39100
#	54310
#	72543
#	91623
#	105323
#	131278
#	149333
#	169433
#	187883
#	205365
#	230073
#
# Disc length: 3279 seconds
#
# Revision: 1
# Processed by: cddbd v1.4PL0 Copyright (c) Steve Scherf et al.
# Submitted via: audiograbber 1.81.03
#
DISCID=a50ccd0d
DTITLE=The Healers - Rhythm and Bones
DYEAR=1994
DGENRE=Blues
TTITLE0=Restless
TTITLE1=Mumbo Jumbo
TTITLE2=Green River
TTITLE3=Georgio
TTITLE4=Big Bite
TTITLE5=She Came Dancin'
TTITLE6=Lookin' Back
TTITLE7=Ice Pick's Groove
TTITLE8=Devil's Laugh
TTITLE9=80 Miles
TTITLE10=Nadine
TTITLE11=Black Cloud
TTITLE12=I Need Love
EXTD=
EXTT0=
EXTT1=
EXTT2=
EXTT3=
EXTT4=
EXTT5=
EXTT6=
EXTT7=
EXTT8=
EXTT9=
EXTT10=
EXTT11=
EXTT12=
PLAYORDER=
